<svg viewBox="0 0 242 89" xmlns="http://www.w3.org/2000/svg" fill-rule="evenodd" clip-rule="evenodd" stroke-linejoin="round" stroke-miterlimit="1.414">
    <path d="M45.424 0L9 17.55 0 56.954l25.206 31.61H65.64l25.205-31.61-8.992-39.406L45.423 0z" fill="#e7f1f9" fill-rule="nonzero"></path>
    <clipPath id="apprenda-logo-a">
      <path d="M0 0h241.063v88.565H0z"></path>
    </clipPath>
    <g clip-path="url(#apprenda-logo-a)" fill-rule="nonzero">
      <path d="M45.375 15.052l-12.57 26.05 12.57 12.47L57.948 41.1 45.375 15.05z" fill="url(#apprenda-logo-b)"></path>
      <path d="M71.743 69.43L57.948 41.1 45.375 53.57l15.987 15.86h10.38z" fill="url(#apprenda-logo-c)"></path>
      <path d="M45.375 53.57L32.805 41.1l-13.8 28.33h10.382l15.988-15.86z" fill="url(#apprenda-logo-d)"></path>
      <g id="apprenda-logo-type">
        <path d="M117.32 51.532l-2.11-4.643h-.063l-2.067 4.642h4.24zm-9.113 4.496l6.56-14.2c.066-.125.172-.232.36-.232h.213c.21 0 .292.107.357.23l6.498 14.202c.127.273-.042.55-.357.55h-1.84c-.313 0-.46-.128-.61-.424l-1.036-2.28h-6.306l-1.038 2.28c-.08.208-.27.423-.61.423h-1.835c-.317 0-.487-.276-.356-.55M132.26 48.644c1.185 0 2.176-.95 2.176-2.198 0-1.156-.99-2.045-2.176-2.045h-2.447v4.244h2.447zm-5.188-6.437c0-.21.168-.403.397-.403h4.96c2.598 0 4.727 2.11 4.727 4.67 0 2.61-2.13 4.742-4.704 4.742h-2.64v4.957c0 .216-.185.404-.4.404h-1.944c-.23 0-.398-.188-.398-.404V42.207zM147.56 48.644c1.183 0 2.175-.95 2.175-2.198 0-1.156-.992-2.045-2.175-2.045h-2.445v4.244h2.445zm-5.192-6.437c0-.21.172-.403.4-.403h4.96c2.598 0 4.727 2.11 4.727 4.67 0 2.61-2.13 4.742-4.705 4.742h-2.635v4.957c0 .216-.193.404-.404.404h-1.942c-.228 0-.4-.188-.4-.404V42.207zM164.24 48.537c1.118 0 2.09-.968 2.09-2.152 0-1.122-.972-2.05-2.09-2.05h-3.438v4.202h3.44zm-6.205-6.33c0-.21.172-.403.4-.403h6.036c2.534 0 4.602 2.028 4.602 4.54 0 1.94-1.284 3.522-3.122 4.26l2.89 5.36c.147.278 0 .613-.36.613h-2.217c-.188 0-.295-.105-.335-.188l-2.81-5.593h-2.337v5.376c0 .216-.19.404-.4.404h-1.946c-.227 0-.4-.188-.4-.404V42.207zM175.265 42.207c0-.21.17-.403.403-.403h8.586c.235 0 .4.192.4.403v1.733c0 .208-.165.396-.4.396h-6.248v3.46h5.215c.208 0 .4.195.4.406v1.75c0 .23-.192.4-.4.4h-5.214v3.692h6.248c.235 0 .4.192.4.403v1.726c0 .216-.165.404-.4.404h-8.586c-.234 0-.403-.188-.403-.404V42.207zM190.847 41.976c0-.215.186-.38.4-.38h.527l8.778 9.326h.023v-8.716c0-.21.168-.403.4-.403h1.94c.21 0 .4.194.4.403v14.206c0 .208-.19.377-.4.377h-.507l-8.824-9.688h-.015v9.07c0 .216-.173.405-.405.405h-1.918c-.214 0-.4-.19-.4-.404V41.976zM215.46 54c2.744 0 4.747-2.066 4.747-4.83 0-2.743-2.003-4.815-4.746-4.815h-2.406V54h2.407zm-5.126-11.793c0-.21.166-.404.38-.404h5c4.07 0 7.406 3.316 7.406 7.367 0 4.094-3.335 7.407-7.406 7.407h-5c-.214 0-.38-.19-.38-.404V42.207zM236.15 51.532l-2.113-4.643h-.062l-2.07 4.642h4.244zm-9.12 4.496l6.563-14.2c.066-.125.173-.232.36-.232h.21c.215 0 .296.107.36.23l6.5 14.202c.123.273-.043.55-.358.55h-1.84c-.316 0-.462-.128-.61-.424l-1.035-2.28h-6.31l-1.034 2.28c-.08.208-.27.423-.608.423h-1.84c-.312 0-.48-.276-.358-.55" fill="#0968ad"></path>
      </g>
    </g>
    <defs>
      <radialGradient id="apprenda-logo-b" cx="0" cy="0" r="1" gradientUnits="userSpaceOnUse" gradientTransform="rotate(180 28.48 20.667) scale(23.7178)">
        <stop offset="0%" stop-color="#0968ad"></stop>
        <stop offset="100%" stop-color="#103e68"></stop>
      </radialGradient>
      <radialGradient id="apprenda-logo-c" cx="0" cy="0" r="1" gradientUnits="userSpaceOnUse" gradientTransform="matrix(-20.7924 2.035 -2.2252 -22.736 53.846 38.922)">
        <stop offset="0%" stop-color="#2189ca"></stop>
        <stop offset="100%" stop-color="#0968ad"></stop>
      </radialGradient>
      <linearGradient id="apprenda-logo-d" x2="1" gradientUnits="userSpaceOnUse" gradientTransform="translate(19.006 55.266) scale(26.369)">
        <stop offset="0%" stop-color="#94c2e0"></stop>
        <stop offset="100%" stop-color="#c4dcef"></stop>
      </linearGradient>
    </defs>
  </svg>