<?xml version="1.0" standalone="no"?>
<!DOCTYPE svg PUBLIC "-//W3C//DTD SVG 20010904//EN"
 "http://www.w3.org/TR/2001/REC-SVG-20010904/DTD/svg10.dtd">
<svg version="1.0" xmlns="http://www.w3.org/2000/svg"
 width="180.000000pt" height="180.000000pt" viewBox="0 0 180.000000 180.000000"
 preserveAspectRatio="xMidYMid meet">

<g transform="translate(0.000000,180.000000) scale(0.100000,-0.100000)"
fill="#000000" stroke="none">
<path d="M125 1790 c3 -5 16 -15 28 -21 22 -12 22 -12 3 10 -19 21 -43 30 -31
11z"/>
<path d="M890 1791 c0 -5 -10 -12 -22 -14 -23 -4 -23 -4 -1 -6 12 0 24 -9 26
-18 3 -10 5 -3 6 15 0 17 -1 32 -4 32 -3 0 -5 -4 -5 -9z"/>
<path d="M951 1786 c-9 -11 -7 -15 9 -19 11 -3 23 -1 26 4 3 5 15 9 27 10 20
1 20 2 -3 9 -37 12 -46 11 -59 -4z"/>
<path d="M1047 1793 c-4 -3 -7 -11 -7 -17 0 -7 3 -7 8 0 4 7 16 14 27 17 19 5
19 5 -1 6 -11 0 -24 -2 -27 -6z"/>
<path d="M1280 1788 c0 -9 -8 -22 -17 -27 -10 -6 -13 -10 -8 -11 6 0 17 4 25
10 19 12 37 -4 45 -41 7 -31 -10 -64 -27 -53 -5 3 -5 11 2 19 8 9 3 14 -21 19
-68 13 -77 -1 -33 -53 14 -17 28 -46 31 -66 4 -26 11 -35 25 -35 11 0 16 -4
13 -10 -10 -16 16 -11 60 10 22 11 32 18 22 15 -68 -19 -67 -19 -67 17 0 19
11 49 25 70 14 20 25 41 25 47 0 20 22 23 35 5 8 -11 15 -14 15 -8 0 5 -5 15
-12 22 -9 9 -8 12 4 12 8 0 21 7 28 15 11 13 10 14 -6 8 -10 -3 -34 -15 -52
-25 -43 -24 -51 -23 -62 8 -8 21 -7 29 7 40 16 13 15 14 -11 8 -19 -5 -31 -2
-37 7 -7 11 -9 11 -9 -3z"/>
<path d="M1540 1790 c0 -5 5 -10 11 -10 5 0 7 5 4 10 -3 6 -8 10 -11 10 -2 0
-4 -4 -4 -10z"/>
<path d="M1675 1789 c-4 -6 -14 -8 -22 -5 -8 3 -11 2 -8 -4 7 -11 -52 -43 -66
-35 -5 4 -8 1 -7 -6 3 -13 -9 -18 -89 -39 -60 -15 -76 -35 -70 -83 3 -24 13
-45 26 -54 12 -8 18 -19 15 -25 -4 -7 -2 -8 5 -4 6 4 9 11 6 16 -3 4 3 6 12 4
42 -10 89 -9 101 3 21 20 0 45 -41 48 -20 1 -34 -2 -31 -6 3 -5 -2 -6 -9 -3
-16 6 -29 42 -21 56 3 4 19 8 36 8 21 0 31 -6 35 -19 3 -12 11 -17 19 -14 8 3
22 -1 32 -8 14 -11 15 -11 5 1 -10 11 -10 17 0 28 10 13 9 14 -10 3 -25 -13
-28 -9 -13 19 8 14 6 21 -6 28 -12 7 -1 18 55 52 39 23 71 44 71 46 0 9 -19 3
-25 -7z"/>
<path d="M1505 1780 c-3 -5 -1 -10 4 -10 6 0 11 5 11 10 0 6 -2 10 -4 10 -3 0
-8 -4 -11 -10z"/>
<path d="M1754 1767 c4 -13 -4 -23 -29 -38 -40 -24 -44 -29 -15 -22 11 3 20 0
20 -5 0 -6 10 -17 23 -23 l22 -12 -23 25 -23 25 33 27 c18 15 27 24 19 20 -7
-3 -18 0 -23 7 -8 11 -9 10 -4 -4z"/>
<path d="M53 1745 c15 -14 32 -25 38 -25 14 0 -24 35 -47 43 -13 5 -11 0 9
-18z"/>
<path d="M1205 1750 c-4 -6 3 -10 14 -10 25 0 27 6 6 13 -8 4 -17 2 -20 -3z"/>
<path d="M1480 1750 c0 -5 5 -10 11 -10 5 0 7 5 4 10 -3 6 -8 10 -11 10 -2 0
-4 -4 -4 -10z"/>
<path d="M891 1714 c0 -11 3 -14 6 -6 3 7 2 16 -1 19 -3 4 -6 -2 -5 -13z"/>
<path d="M1046 1721 c-4 -6 -15 -11 -24 -11 -15 0 -17 -11 -16 -80 1 -44 4
-80 8 -80 3 0 15 0 27 0 13 0 20 6 18 18 -1 9 -1 28 0 41 l1 24 25 -23 c14
-13 23 -26 20 -28 -8 -9 29 -31 53 -32 20 0 22 5 24 48 3 103 -4 127 -32 112
-13 -7 -20 -21 -20 -42 0 -26 -2 -29 -15 -18 -8 7 -15 19 -15 26 0 8 -5 13
-12 12 -6 -2 -17 8 -24 20 -7 15 -14 20 -18 13z"/>
<path d="M317 1703 c-15 -2 -25 -9 -21 -14 3 -6 -2 -19 -12 -30 -9 -10 -13
-19 -8 -19 5 0 3 -4 -5 -9 -12 -8 -8 -15 19 -38 47 -40 54 -43 97 -45 57 -2
83 16 83 56 0 28 -4 35 -26 40 -24 6 -25 8 -10 19 30 22 10 42 -42 43 -26 1
-59 -1 -75 -3z m86 -40 c4 -3 -2 -13 -14 -21 -25 -17 -20 -34 12 -43 20 -6 18
-7 -13 -8 -27 -1 -40 4 -48 18 -13 26 -3 49 23 54 12 2 25 5 28 6 3 0 9 -2 12
-6z"/>
<path d="M508 1703 c-2 -5 -2 -41 0 -81 l4 -74 66 6 c101 8 112 10 112 19 0 4
-3 7 -8 7 -4 0 -6 18 -4 40 3 32 -1 43 -23 65 -23 21 -38 25 -86 25 -32 0 -59
-3 -61 -7z m120 -72 c4 -26 -12 -41 -45 -41 -20 0 -23 5 -23 36 0 34 1 35 33
32 25 -2 33 -8 35 -27z"/>
<path d="M745 1698 c-11 -6 -24 -18 -29 -27 -9 -14 -11 -12 -18 9 -6 20 -7 18
-3 -9 3 -18 5 -44 5 -57 0 -29 24 -53 61 -61 16 -3 29 -11 29 -17 0 -7 3 -7 8
1 4 7 28 14 52 15 l45 3 -4 43 c-2 29 -8 42 -18 42 -11 0 -14 7 -9 25 5 21 2
27 -19 35 -34 13 -75 12 -100 -2z m89 -34 c22 -9 10 -24 -20 -24 -33 0 -35
-39 -1 -41 18 -1 18 -2 4 -6 -36 -9 -67 6 -67 32 0 35 42 55 84 39z"/>
<path d="M1648 1684 c-16 -8 -28 -16 -28 -18 0 -9 40 7 51 20 14 17 11 17 -23
-2z"/>
<path d="M491 1654 c0 -11 3 -14 6 -6 3 7 2 16 -1 19 -3 4 -6 -2 -5 -13z"/>
<path d="M1700 1629 c0 -5 5 -7 10 -4 6 3 10 8 10 11 0 2 -4 4 -10 4 -5 0 -10
-5 -10 -11z"/>
<path d="M1635 1610 c-16 -17 -16 -20 -3 -15 9 4 19 13 22 21 7 19 2 18 -19
-6z"/>
<path d="M1392 1600 c0 -14 2 -19 5 -12 2 6 2 18 0 25 -3 6 -5 1 -5 -13z"/>
<path d="M1780 1605 c-7 -9 -11 -17 -9 -20 3 -2 10 5 17 15 14 24 10 26 -8 5z"/>
<path d="M1235 1590 c-3 -5 -2 -10 4 -10 5 0 13 5 16 10 3 6 2 10 -4 10 -5 0
-13 -4 -16 -10z"/>
<path d="M1719 1583 c-13 -16 -12 -17 4 -4 9 7 17 15 17 17 0 8 -8 3 -21 -13z"/>
<path d="M1690 1552 c-14 -6 -14 -9 1 -23 16 -16 17 -15 15 7 0 13 -1 24 -1
23 0 0 -7 -3 -15 -7z"/>
<path d="M10 1520 c0 -5 5 -10 10 -10 6 0 10 5 10 10 0 6 -4 10 -10 10 -5 0
-10 -4 -10 -10z"/>
<path d="M1245 1520 c-3 -5 -1 -10 4 -10 6 0 11 5 11 10 0 6 -2 10 -4 10 -3 0
-8 -4 -11 -10z"/>
<path d="M1280 1521 c0 -6 4 -12 8 -15 5 -3 9 1 9 9 0 8 -4 15 -9 15 -4 0 -8
-4 -8 -9z"/>
<path d="M1501 1521 c-8 -5 -9 -11 -3 -15 5 -3 12 1 16 9 6 17 6 18 -13 6z"/>
<path d="M1587 1519 c7 -7 15 -10 18 -7 3 3 -2 9 -12 12 -14 6 -15 5 -6 -5z"/>
<path d="M590 1510 c0 -6 7 -10 15 -10 8 0 15 2 15 4 0 2 -7 6 -15 10 -8 3
-15 1 -15 -4z"/>
<path d="M1380 1510 c0 -5 5 -10 11 -10 5 0 7 5 4 10 -3 6 -8 10 -11 10 -2 0
-4 -4 -4 -10z"/>
<path d="M1759 1503 c-13 -16 -12 -17 4 -4 9 7 17 15 17 17 0 8 -8 3 -21 -13z"/>
<path d="M1130 1501 c-31 -4 -39 -8 -25 -12 11 -3 40 0 65 7 48 13 33 15 -40
5z"/>
<path d="M684 1479 c-2 -4 -35 -6 -74 -4 l-70 3 18 -27 c53 -80 102 -173 97
-181 -3 -4 2 -10 10 -14 8 -3 15 -12 15 -21 0 -8 4 -15 8 -15 5 0 19 -21 32
-47 12 -27 33 -62 46 -80 13 -17 24 -34 24 -37 0 -3 22 -43 48 -89 l48 -83
-23 -40 c-12 -21 -35 -63 -50 -93 -16 -29 -38 -64 -50 -77 -12 -13 -20 -24
-17 -24 3 0 -5 -18 -17 -40 -13 -22 -26 -40 -31 -40 -4 0 -8 -8 -8 -18 0 -11
-8 -28 -18 -39 -9 -11 -30 -48 -46 -82 -16 -33 -36 -61 -43 -61 -8 0 -11 -4
-8 -10 3 -5 -1 -21 -10 -34 -22 -34 -11 -50 31 -43 29 5 35 3 40 -18 8 -31 2
-60 -14 -61 -6 -1 -16 -2 -22 -3 -5 0 -10 -10 -10 -21 0 -22 -7 -25 -29 -11
-8 5 -11 16 -8 25 4 10 -2 22 -18 32 -28 18 -42 12 -55 -22 -11 -27 -31 -28
-42 -2 -10 25 -35 22 -64 -7 -29 -29 -40 -31 -48 -10 -3 8 -10 15 -15 15 -14
0 -41 -53 -41 -79 0 -14 -5 -19 -15 -15 -8 4 -15 14 -15 23 0 10 -7 26 -15 37
-15 19 -16 19 -31 -4 -17 -22 -44 -30 -44 -12 0 6 -7 10 -15 10 -8 0 -15 5
-15 10 0 11 -33 13 -67 4 -22 -6 -23 -12 -23 -90 l0 -84 885 0 886 0 -3 102
-3 102 -32 7 c-30 6 -33 4 -33 -17 0 -13 -9 -28 -21 -34 -17 -9 -23 -8 -35 7
-15 20 -18 43 -6 43 5 0 16 6 26 13 16 12 16 14 2 26 -14 12 -16 12 -10 -2 4
-11 -2 -20 -20 -28 -30 -14 -31 -17 -11 -43 8 -11 15 -24 15 -30 0 -6 -7 0
-16 12 -8 12 -22 22 -30 22 -8 0 -14 3 -15 8 0 4 -2 24 -4 44 -3 25 1 40 10
46 12 6 11 10 -6 20 -16 10 -19 10 -14 1 5 -7 0 -18 -11 -26 -13 -10 -17 -24
-15 -53 2 -37 -10 -53 -24 -30 -9 15 -46 12 -66 -6 -11 -9 -19 -12 -23 -5 -4
5 6 17 21 26 l28 15 -27 -6 c-23 -5 -28 -3 -28 12 0 16 -6 19 -45 16 -41 -4
-45 -2 -46 19 -1 17 -3 19 -6 7 -2 -10 -11 -18 -19 -18 -8 0 -14 -5 -14 -11 0
-5 5 -7 10 -4 6 3 10 2 10 -3 0 -9 -65 -32 -91 -32 -8 0 -27 -7 -42 -15 -16
-8 -46 -14 -66 -13 -46 1 -61 -7 -61 -33 0 -10 -5 -19 -11 -19 -7 0 -10 12 -7
30 3 16 1 30 -3 30 -4 0 -13 16 -19 35 -10 30 -14 33 -30 25 -10 -6 -30 -10
-44 -10 -22 0 -26 -4 -26 -30 0 -23 -5 -30 -19 -30 -33 0 -51 11 -51 31 0 16
-4 18 -17 11 -10 -5 -27 -6 -38 -2 -11 4 -37 5 -58 2 l-37 -5 2 36 c2 28 8 37
25 42 14 3 32 23 44 48 12 23 41 74 63 112 23 39 64 107 91 153 l49 83 27 -53
c15 -29 40 -68 56 -87 26 -30 29 -31 30 -12 2 24 65 132 88 151 8 7 15 20 15
29 0 9 16 41 35 71 44 69 53 113 31 154 -9 17 -16 35 -16 39 1 4 -9 16 -20 25
-12 9 -22 27 -23 40 -1 12 -4 22 -8 22 -14 0 -121 194 -112 204 3 3 0 6 -7 6
-7 0 -11 3 -7 6 3 3 -11 28 -32 55 -20 27 -48 72 -62 99 -24 49 -24 50 -74 51
-27 0 -90 1 -138 2 -49 1 -91 -1 -93 -4z"/>
<path d="M1008 1483 c7 -3 16 -2 19 1 4 3 -2 6 -13 5 -11 0 -14 -3 -6 -6z"/>
<path d="M1043 1474 c-3 -8 0 -21 7 -27 10 -10 12 -8 6 7 -4 12 -1 23 6 28 11
6 11 8 0 8 -7 0 -15 -7 -19 -16z"/>
<path d="M1569 1470 c-16 -17 -15 -40 2 -40 6 0 7 5 4 10 -4 6 -1 18 6 26 17
20 7 24 -12 4z"/>
<path d="M1227 1446 c-4 -10 -1 -13 8 -9 8 3 12 9 9 14 -7 12 -11 11 -17 -5z"/>
<path d="M280 1435 c-7 -8 -8 -15 -2 -15 5 0 15 7 22 15 7 8 8 15 2 15 -5 0
-15 -7 -22 -15z"/>
<path d="M1645 1440 c-3 -5 -1 -10 4 -10 6 0 11 5 11 10 0 6 -2 10 -4 10 -3 0
-8 -4 -11 -10z"/>
<path d="M380 1430 c0 -5 5 -10 10 -10 6 0 10 5 10 10 0 6 -4 10 -10 10 -5 0
-10 -4 -10 -10z"/>
<path d="M1726 1432 c-4 -7 -4 -12 0 -12 4 0 -1 -9 -11 -20 -10 -11 -13 -20
-7 -20 14 0 35 37 29 53 -2 8 -5 8 -11 -1z"/>
<path d="M1615 1400 c3 -5 11 -10 16 -10 6 0 7 5 4 10 -3 6 -11 10 -16 10 -6
0 -7 -4 -4 -10z"/>
<path d="M1768 1390 l24 -20 -21 -26 c-22 -27 -27 -44 -13 -44 7 1 42 65 42
79 0 4 -12 13 -27 20 l-28 11 23 -20z"/>
<path d="M1410 1380 c0 -5 5 -10 11 -10 5 0 7 5 4 10 -3 6 -8 10 -11 10 -2 0
-4 -4 -4 -10z"/>
<path d="M1687 1346 c-4 -10 -1 -13 8 -9 8 3 12 9 9 14 -7 12 -11 11 -17 -5z"/>
<path d="M315 1320 c3 -5 8 -10 11 -10 2 0 4 5 4 10 0 6 -5 10 -11 10 -5 0 -7
-4 -4 -10z"/>
<path d="M1600 1321 c0 -5 7 -12 16 -15 14 -5 15 -4 4 9 -14 17 -20 19 -20 6z"/>
<path d="M1650 1305 c-8 -9 -8 -15 -2 -15 12 0 26 19 19 26 -2 2 -10 -2 -17
-11z"/>
<path d="M1727 1270 c-19 -22 -21 -30 -9 -30 5 0 14 11 20 25 14 30 12 31 -11
5z"/>
<path d="M1550 1259 c0 -8 -14 -31 -31 -52 -17 -20 -27 -37 -22 -37 4 0 17 12
28 27 11 14 26 33 34 40 10 11 11 17 2 26 -8 8 -11 7 -11 -4z"/>
<path d="M1682 1250 c-18 -29 -15 -38 4 -12 9 13 14 25 12 27 -2 2 -9 -5 -16
-15z"/>
<path d="M1580 1250 c0 -5 5 -10 10 -10 6 0 10 5 10 10 0 6 -4 10 -10 10 -5 0
-10 -4 -10 -10z"/>
<path d="M1270 1196 c0 -2 7 -9 15 -16 9 -7 15 -8 15 -2 0 5 -7 12 -15 16 -8
3 -15 4 -15 2z"/>
<path d="M1565 1160 c3 -5 8 -10 11 -10 2 0 4 5 4 10 0 6 -5 10 -11 10 -5 0
-7 -4 -4 -10z"/>
<path d="M1220 1136 c0 -2 8 -10 18 -17 15 -13 16 -12 3 4 -13 16 -21 21 -21
13z"/>
<path d="M1381 1114 c0 -11 3 -14 6 -6 3 7 2 16 -1 19 -3 4 -6 -2 -5 -13z"/>
<path d="M1683 1098 c21 -18 24 -27 15 -36 -6 -6 -9 -14 -6 -18 4 -3 11 3 17
14 9 18 6 24 -22 42 l-32 22 28 -24z"/>
<path d="M537 1103 c-4 -3 -7 -11 -7 -17 0 -6 5 -5 12 2 6 6 9 14 7 17 -3 3
-9 2 -12 -2z"/>
<path d="M1267 1087 c-3 -8 1 -14 9 -14 8 0 14 6 14 14 0 7 -4 13 -9 13 -5 0
-11 -6 -14 -13z"/>
<path d="M1741 1074 c0 -11 3 -14 6 -6 3 7 2 16 -1 19 -3 4 -6 -2 -5 -13z"/>
<path d="M1605 1061 c-3 -5 -1 -12 5 -16 5 -3 10 1 10 9 0 18 -6 21 -15 7z"/>
<path d="M75 1050 c3 -5 8 -10 11 -10 2 0 4 5 4 10 0 6 -5 10 -11 10 -5 0 -7
-4 -4 -10z"/>
<path d="M1518 1010 c19 -16 21 -23 12 -40 -6 -11 -8 -20 -6 -20 3 0 10 9 16
21 9 16 8 25 -6 40 -9 10 -22 19 -28 19 -6 -1 -1 -9 12 -20z"/>
<path d="M1670 1020 c-9 -6 -10 -10 -3 -10 6 0 15 5 18 10 8 12 4 12 -15 0z"/>
<path d="M1380 1005 c0 -2 10 -10 23 -16 20 -11 21 -11 8 4 -13 16 -31 23 -31
12z"/>
<path d="M1656 973 c-6 -14 -5 -15 5 -6 7 7 10 15 7 18 -3 3 -9 -2 -12 -12z"/>
<path d="M1606 943 c-6 -14 -5 -15 5 -6 7 7 10 15 7 18 -3 3 -9 -2 -12 -12z"/>
<path d="M223 940 c-13 -5 -23 -12 -23 -15 0 -9 16 -5 36 10 22 16 19 18 -13
5z"/>
<path d="M1630 946 c0 -2 7 -7 16 -10 8 -3 12 -2 9 4 -6 10 -25 14 -25 6z"/>
<path d="M1671 925 c9 -8 79 -35 79 -30 0 2 -16 12 -36 20 -37 15 -51 19 -43
10z"/>
<path d="M500 911 c0 -5 7 -12 16 -15 14 -5 15 -4 4 9 -14 17 -20 19 -20 6z"/>
<path d="M1540 905 c7 -8 17 -15 22 -15 6 0 5 7 -2 15 -7 8 -17 15 -22 15 -6
0 -5 -7 2 -15z"/>
<path d="M560 889 c0 -5 5 -7 10 -4 6 3 10 8 10 11 0 2 -4 4 -10 4 -5 0 -10
-5 -10 -11z"/>
<path d="M1455 890 c3 -5 8 -10 11 -10 2 0 4 5 4 10 0 6 -5 10 -11 10 -5 0 -7
-4 -4 -10z"/>
<path d="M1580 895 c0 -5 5 -17 10 -25 5 -8 10 -10 10 -5 0 6 -5 17 -10 25 -5
8 -10 11 -10 5z"/>
<path d="M1520 862 c0 -12 19 -27 45 -35 l20 -7 -20 15 c-11 8 -26 19 -32 25
-7 6 -13 7 -13 2z"/>
<path d="M1734 846 c-3 -14 -2 -32 4 -42 7 -13 9 -7 9 25 0 47 -4 52 -13 17z"/>
<path d="M1381 855 c0 -13 28 -50 33 -44 3 2 -4 15 -14 29 -11 14 -20 21 -19
15z"/>
<path d="M283 828 c-14 -19 -24 -48 -15 -48 8 0 34 52 28 57 -2 2 -8 -2 -13
-9z"/>
<path d="M1520 700 c-8 -5 -12 -12 -9 -15 4 -3 12 1 19 10 14 17 11 19 -10 5z"/>
<path d="M1606 662 c-3 -4 4 -9 15 -9 23 -2 25 3 4 10 -8 4 -16 3 -19 -1z"/>
<path d="M1770 666 c0 -2 8 -10 18 -17 15 -13 16 -12 3 4 -13 16 -21 21 -21
13z"/>
<path d="M627 643 c-4 -3 -7 -11 -7 -17 0 -6 5 -5 12 2 6 6 9 14 7 17 -3 3 -9
2 -12 -2z"/>
<path d="M1559 623 c-13 -16 -12 -17 4 -4 16 13 21 21 13 21 -2 0 -10 -8 -17
-17z"/>
<path d="M1765 520 c10 -11 20 -20 23 -20 3 0 -3 9 -13 20 -10 11 -20 20 -23
20 -3 0 3 -9 13 -20z"/>
<path d="M1350 514 c0 -8 5 -12 10 -9 6 4 8 11 5 16 -9 14 -15 11 -15 -7z"/>
<path d="M1465 480 c-3 -5 -2 -10 4 -10 5 0 13 5 16 10 3 6 2 10 -4 10 -5 0
-13 -4 -16 -10z"/>
<path d="M90 459 c0 -5 5 -7 10 -4 6 3 10 8 10 11 0 2 -4 4 -10 4 -5 0 -10 -5
-10 -11z"/>
<path d="M495 459 c-4 -6 -5 -12 -2 -15 2 -3 7 2 10 11 7 17 1 20 -8 4z"/>
<path d="M1764 455 c36 -19 42 -19 26 0 -7 8 -22 15 -34 15 -18 0 -17 -2 8
-15z"/>
<path d="M1685 420 c-3 -6 1 -7 9 -4 18 7 21 14 7 14 -6 0 -13 -4 -16 -10z"/>
<path d="M54 388 l-19 -23 23 19 c21 18 27 26 19 26 -2 0 -12 -10 -23 -22z"/>
<path d="M0 392 c0 -12 19 -26 26 -19 2 2 -2 10 -11 17 -9 8 -15 8 -15 2z"/>
<path d="M1470 380 c6 -11 15 -20 20 -20 6 0 5 9 -2 20 -7 11 -16 20 -21 20
-4 0 -3 -9 3 -20z"/>
<path d="M1573 355 c-8 -23 0 -25 21 -4 18 17 18 19 2 19 -9 0 -19 -7 -23 -15z"/>
<path d="M1141 334 c0 -11 3 -14 6 -6 3 7 2 16 -1 19 -3 4 -6 -2 -5 -13z"/>
<path d="M1500 330 c0 -6 7 -10 15 -10 8 0 15 2 15 4 0 2 -7 6 -15 10 -8 3
-15 1 -15 -4z"/>
<path d="M1742 306 c19 -28 25 -32 40 -22 10 6 18 15 18 20 0 4 -7 2 -16 -5
-14 -11 -18 -10 -30 6 -8 10 -14 22 -14 27 0 4 -5 8 -10 8 -6 0 0 -15 12 -34z"/>
<path d="M55 250 c3 -5 8 -10 11 -10 2 0 4 5 4 10 0 6 -5 10 -11 10 -5 0 -7
-4 -4 -10z"/>
<path d="M760 256 c0 -2 9 -6 20 -9 11 -3 20 -1 20 4 0 5 -9 9 -20 9 -11 0
-20 -2 -20 -4z"/>
<path d="M1280 230 c-8 -5 -10 -10 -5 -10 6 0 17 5 25 10 8 5 11 10 5 10 -5 0
-17 -5 -25 -10z"/>
<path d="M1107 201 c-4 -17 -3 -21 5 -13 5 5 8 16 6 23 -3 8 -7 3 -11 -10z"/>
</g>
</svg>
