<svg viewBox="0 0 569 188" xmlns="http://www.w3.org/2000/svg" fill-rule="evenodd" clip-rule="evenodd" stroke-linejoin="round" stroke-miterlimit="1.414"><g fill-rule="nonzero"><path d="M139.665 66.28h-66.29v19.668h47.018c-2.325 27.583-25.274 39.346-46.933 39.346-27.715 0-51.9-21.8-51.9-52.368 0-29.767 23.05-52.7 51.954-52.7 22.305 0 35.443 14.218 35.443 14.218l13.776-14.266S105.054.502 72.815.502C31.759.502 0 35.152 0 72.577c0 36.678 29.877 72.44 73.863 72.44 38.685 0 67.006-26.503 67.006-65.692 0-8.264-1.205-13.045-1.205-13.045z" fill="#4885ed"/><path d="M193.968 52.037c-27.202 0-46.692 21.263-46.692 46.062 0 25.173 18.907 46.832 47.01 46.832 25.446 0 46.288-19.45 46.288-46.287 0-30.763-24.247-46.607-46.606-46.607zm.272 18.246c13.372 0 26.051 10.814 26.051 28.236 0 17.057-12.625 28.182-26.113 28.182-14.826 0-26.518-11.872-26.518-28.314 0-16.093 11.552-28.104 26.58-28.104z" fill="#db3236"/><path d="M295.522 52.037c-27.202 0-46.691 21.263-46.691 46.062 0 25.173 18.906 46.832 47.01 46.832 25.445 0 46.288-19.45 46.288-46.287 0-30.763-24.248-46.607-46.607-46.607zm.273 18.246c13.371 0 26.05 10.814 26.05 28.236 0 17.057-12.624 28.182-26.113 28.182-14.825 0-26.517-11.872-26.517-28.314 0-16.093 11.544-28.104 26.58-28.104z" fill="#f4c20d"/><path d="M395.126 52.084c-24.971 0-44.593 21.869-44.593 46.412 0 27.956 22.747 46.497 44.157 46.497 13.24 0 20.283-5.255 25.476-11.288v9.158c0 16.023-9.733 25.624-24.418 25.624-14.188 0-21.302-10.55-23.774-16.536l-17.85 7.464c6.329 13.387 19.078 27.35 41.771 27.35 24.823 0 43.746-15.635 43.746-48.426V54.875h-19.475v7.867c-5.986-6.452-14.172-10.658-25.04-10.658zm1.803 18.207c12.245 0 24.808 10.456 24.808 28.306 0 18.137-12.54 28.135-25.08 28.135-13.31 0-25.694-10.806-25.694-27.964 0-17.834 12.867-28.477 25.966-28.477z" fill="#4885ed"/><path d="M526.23 51.975c-23.556 0-43.326 18.736-43.326 46.389 0 29.254 22.04 46.606 45.588 46.606 19.646 0 31.711-10.752 38.91-20.384l-16.061-10.69c-4.167 6.469-11.133 12.79-22.756 12.79-13.052 0-19.062-7.153-22.778-14.08l62.28-25.841-3.235-7.572c-6.017-14.834-20.05-27.218-38.622-27.218zm.808 17.865c8.482 0 14.593 4.51 17.19 9.92l-41.593 17.383C500.84 83.686 513.59 69.84 527.038 69.84z" fill="#db3236"/><path d="M453.215 142.21h20.453V5.3h-20.453v136.91z" fill="#3cba54"/></g></svg>