<?xml version="1.0" encoding="utf-8"?>
<!-- Generator: Adobe Illustrator 19.1.0, SVG Export Plug-In . SVG Version: 6.00 Build 0)  -->
<svg version="1.1" id="Layer_1" xmlns="http://www.w3.org/2000/svg" xmlns:xlink="http://www.w3.org/1999/xlink" x="0px" y="0px"
	 viewBox="0 0 628.4 100" style="enable-background:new 0 0 628.4 100;" xml:space="preserve">
<style type="text/css">
	.st0{fill:#78C157;}
	.st1{fill:#666666;}
</style>
<g>
	<path class="st0" d="M349.7,74.5v-71h-13.5v21c-3.8-3.7-8.9-5.7-15.2-5.7c-15.5,0-27.2,12.6-27.2,28.3c0,15.8,11.7,28.6,27.2,28.6
		c6.3,0,11.5-2.2,15.2-5.8v4.7H349.7L349.7,74.5z M322.5,62.7c-8.3,0-15-6.9-15-15.6c0-8.5,6.7-15.5,15-15.5
		c5.5,0,10.8,2.7,13.4,7.3c0.2,0.3,0.4,0.8,0.4,1.3V54c0,0.3-0.2,0.8-0.3,0.9C333.4,59.7,328.1,62.7,322.5,62.7L322.5,62.7
		L322.5,62.7z M287.6,74.5V19.9h-13.5v54.6H287.6L287.6,74.5z M280.9,15.7c4.3,0,7.8-3.6,7.8-7.9c0-4.4-3.5-7.9-7.8-7.9
		c-4.3,0-7.8,3.5-7.8,7.9C273.1,12.2,276.6,15.7,280.9,15.7L280.9,15.7L280.9,15.7z M239.5,75.6c15.8,0,28.6-12.7,28.6-28.5
		c0-15.7-12.8-28.3-28.6-28.3c-15.7,0-28.5,12.6-28.5,28.3C210.9,62.9,223.7,75.6,239.5,75.6L239.5,75.6L239.5,75.6z M239.5,62
		c-8.2,0-14.9-6.7-14.9-14.9c0-8.2,6.7-14.9,14.9-14.9c8.3,0,14.9,6.7,14.9,14.9C254.4,55.3,247.8,62,239.5,62L239.5,62L239.5,62z
		 M196.8,74.5V45.3c0-8.6,4.5-13.2,13.2-13.2V18.8c-17.4,0-26.7,9.2-26.7,26.6v29.2H196.8L196.8,74.5z M176.1,74.5v-71h-13.5v21
		c-3.8-3.7-8.9-5.8-15.2-5.8c-15.5,0-27.2,12.7-27.2,28.5c0,15.8,11.7,28.5,27.2,28.5c6.3,0,11.5-2.1,15.2-5.8v4.7H176.1L176.1,74.5
		z M148.9,62.7c-8.3,0-15-6.9-15-15.6c0-8.5,6.7-15.5,15-15.5c5.5,0,10.8,2.7,13.4,7.3c0.2,0.3,0.4,0.8,0.4,1.3V54
		c0,0.3-0.2,0.8-0.3,1C159.8,59.7,154.6,62.7,148.9,62.7L148.9,62.7L148.9,62.7z M114.6,74.5V45c0-14.5-11.3-26.2-25.7-26.2
		c-14.5,0-25.7,11.6-25.7,26.2v29.6h13.5V45c0-7.2,5-12.6,12.2-12.6c7.2,0,12.2,5.5,12.2,12.6v29.6H114.6L114.6,74.5z M55.9,74.5
		V19.9H42.5v4.6c-3.8-3.7-8.9-5.7-15.2-5.7C11.7,18.8,0,31.4,0,47.1c0,15.8,11.7,28.5,27.2,28.5c6.3,0,11.5-2.1,15.2-5.8v4.7H55.9
		L55.9,74.5z M28.7,62.7c-8.3,0-15-6.9-15-15.6c0-8.5,6.7-15.5,15-15.5c5.5,0,11,2.6,13.4,7.3c0.2,0.3,0.4,0.8,0.4,1.3v13.8
		c0,0.3-0.2,0.9-0.3,1C39.6,59.7,34.4,62.7,28.7,62.7L28.7,62.7L28.7,62.7z"/>
	<path class="st1" d="M386.1,75.2v-9.7H385c-7.6,0-12.9-4.5-12.9-12.1V28.9h13.7v-9h-13.7V3.5h-9.8v49.8c0,13.8,8.9,21.9,22.7,21.9
		H386.1L386.1,75.2z M402.8,3.5H393v71h9.8V38.2c2.6-5.7,8.5-9.7,15.5-9.7c8,0,14.3,6.2,14.3,14.3v31.7h9.8V42.2
		c0-12.9-9.8-23.4-22.1-23.4c-6.8,0-12.9,2.5-17.4,7.2V3.5L402.8,3.5z M462.5,74.5V19.9h-9.9v54.6H462.5L462.5,74.5z M457.6,14
		c3.3,0,6-2.7,6-6c0-3.3-2.7-6.1-6-6.1c-3.3,0-5.9,2.7-5.9,6.1C451.7,11.4,454.3,14,457.6,14L457.6,14L457.6,14z M523.5,74.5v-30
		c0-14.7-11.4-25.7-25.7-25.7c-14.3,0-25.6,11-25.6,25.7v30h9.8v-30c0-9.3,6.9-15.8,15.8-15.8c9,0,15.9,6.6,15.9,15.8v30H523.5
		L523.5,74.5z M558.5,66.1c-10.3,0-18.6-8.5-18.6-19c0-10.4,8.3-18.8,18.6-18.8c6.5,0,12.8,3.1,15.8,8.4c0.2,0.3,0.5,0.9,0.5,1.6
		v17.6c0,0.7-0.3,1.4-0.5,1.6C571,62.7,565,66.1,558.5,66.1L558.5,66.1L558.5,66.1z M535.7,93.7c9.3,4.9,14.6,6.5,23.2,6.3
		c15.4-0.4,25.7-10.8,25.7-24.8V19.9h-9.8v5.8c-4.3-4.3-11-5.8-17.7-5.8c-15,0-26.7,12.2-26.7,27.3c0,15.2,11.7,27.5,26.7,27.5
		c6.7,0,13.4-1.6,17.7-5.8v6.4c0,8.5-6.4,14.7-16.9,15.2c-6.3,0.3-10.8-1.4-17.7-5.2L535.7,93.7z M626.5,22.6
		c-4.6-2.4-10.4-3.8-15.9-3.8c-10.1,0-19.3,7.1-19.3,17c0,8.8,7.2,12.8,15.4,14.4c5.7,1.1,12.6,3.5,12.6,8.6c0,4.8-4.9,8.3-10.8,8.3
		c-4.8,0-9.8-1.6-14.1-3.3l-1.7,8.5c4.7,1.9,10.7,3.3,16,3.3c11.4,0,19.8-7.4,19.8-17.3c0-8.9-6.8-13.2-15.4-14.9
		c-4.6-0.9-12.4-2.6-12.4-7.8c0-4.4,4.6-8.5,9.8-8.5c4.6,0,9.5,1.3,13.4,3.4L626.5,22.6L626.5,22.6z"/>
</g>
</svg>
