<svg id="Layer_1" data-name="Layer 1" xmlns="http://www.w3.org/2000/svg" viewBox="0 0 180 42.68"><defs><style>.cls-1{fill:#a6a8ab}.cls-2{fill:#f68f1e}</style></defs><title>galvanize-logo</title><path class="cls-1" d="M1031.31 3256.84c2.35 0 3.88-1 4.14-5.57h-8.32c.27 4.57 1.87 5.57 4.18 5.57zm-1-7.75a1.74 1.74 0 1 0-2.64-.21l-.38.77.77-.38a1.74 1.74 0 0 0 2.25-.18zm-4.15-4.84a1.22 1.22 0 1 0-.15 1.86l.54.27-.26-.54a1.22 1.22 0 0 0-.13-1.59zm2.22-2.62a.78.78 0 1 0-1.19-.1l-.17.34.34-.17a.78.78 0 0 0 1.02-.07z" transform="translate(-1022.5 -3228.92)"/><path class="cls-2" d="M1036.94 3238.75v2.65a8 8 0 0 0-1.69-1.65l-2 2c3.1 1 3.6 4.57 3.6 8.12 0 4.21-.69 8.42-5.58 8.42s-5.63-4.21-5.63-8.42v-.51l-3.19 3.19c.25 2.63.95 5 2.63 6.7a7.74 7.74 0 0 0 5.45 2 7.25 7.25 0 0 0 6.32-2.93v3.52c0 3.84-1.83 6.91-6.18 6.91a6.93 6.93 0 0 1-5.4-2.24l-2.15 2.1a9.93 9.93 0 0 0 7.64 3c5.9 0 9.38-4.07 9.38-9.66v-23.2h-3.25zm24.12 22.54v-2.14c-1.82 1.82-3.46 2.41-6.46 2.41s-4.91-.59-6.32-2a6.44 6.44 0 0 1-1.68-4.55c0-3.91 2.73-6.46 7.73-6.46h6.73v-2.14c0-3.27-1.64-4.91-5.73-4.91-2.86 0-4.32.68-5.64 2.55l-2.23-2c2-2.59 4.28-3.32 7.91-3.32 6 0 9 2.59 9 7.46v15.19h-3.28zm0-10.32h-6.27c-3.37 0-5 1.36-5 4s1.59 3.82 5.14 3.82c1.91 0 3.59-.14 5-1.5.77-.73 1.14-2 1.14-3.86V3251zm16.4 10.32c-3.91 0-5.68-2.55-5.68-6v-26.42h3.27v26.28c0 2.18.73 3.27 3 3.27h1.77v2.82h-2.36zm16.06 0h-2.91l-8.19-22.37h3.58l6.09 18 6.14-18h3.55zm25.48 0v-2.14c-1.82 1.82-3.46 2.41-6.46 2.41s-4.91-.59-6.32-2a6.45 6.45 0 0 1-1.68-4.55c0-3.91 2.73-6.46 7.73-6.46h6.73v-2.14c0-3.27-1.64-4.91-5.73-4.91-2.86 0-4.32.68-5.64 2.55l-2.23-2c2-2.59 4.28-3.32 7.91-3.32 6 0 9 2.59 9 7.46v15.19H1119zm0-10.32h-6.28c-3.37 0-5 1.36-5 4s1.59 3.82 5.14 3.82c1.91 0 3.59-.14 5-1.5.77-.73 1.14-2 1.14-3.86V3251zm24.65 10.32v-13.78c0-4-2.14-6-5.5-6s-5.55 2-5.55 6v13.78h-3.27v-22.37h3.27v2.46a8.06 8.06 0 0 1 6.27-2.73 7.85 7.85 0 0 1 5.73 2.09 8.27 8.27 0 0 1 2.32 6.23v14.32h-3.27zm10.4 0v-22.37h3.27v22.37h-3.27zm9.68 0v-2.82l12.46-16.64h-11.78v-2.91H1180v2.77l-12.51 16.69H1180v2.91h-16.23zm23.67-10.29c0 4.91 2.32 7.73 6.59 7.73a7.35 7.35 0 0 0 5.86-2.55l2.23 2a10.25 10.25 0 0 1-8.19 3.46c-5.91 0-9.78-3.55-9.78-11.46 0-7.23 3.5-11.46 9.18-11.46s9.19 4.18 9.19 10.82v1.5h-15.1zm11.14-6.18a5.75 5.75 0 0 0-10.46 0 9.4 9.4 0 0 0-.68 3.73h11.82a9.44 9.44 0 0 0-.67-3.76z" transform="translate(-1022.5 -3228.92)"/></svg>