<svg xmlns="http://www.w3.org/2000/svg" viewBox="0 0 260.743 72.003"><path fill="#C3002F" d="M0 0h260.743v72.003H0z"/><path fill="#FFF" d="M130.99 23.56v-6.146h-25.635V54.29h25.636V48.14H111.5v-9.218h18.552v-6.147H111.5V23.56M150.013 54.29V17.414h6.146v30.727h17.728v6.147M178.897 54.29V17.414h6.148v30.727h17.73v6.147M137.44 17.415h6.144V54.29h-6.144zM28.617 26.784c-2.367 2.375-3.822 5.62-3.825 9.238.002 3.615 1.458 6.86 3.825 9.233 2.374 2.368 5.62 3.824 9.236 3.826 3.615 0 6.86-1.457 9.234-3.825 2.37-2.372 3.825-5.618 3.825-9.233 0-3.617-1.456-6.862-3.825-9.238-2.374-2.366-5.62-3.82-9.234-3.822-3.617.002-6.863 1.456-9.236 3.822m-9.97 9.238c0-10.608 8.597-19.205 19.206-19.207 10.608.002 19.203 8.6 19.206 19.207-.004 10.607-8.6 19.203-19.207 19.206-10.61-.003-19.204-8.6-19.207-19.206M76.054 32.778v-9.22h12.38c2.545.005 4.606 2.066 4.61 4.613-.004 2.542-2.065 4.604-4.61 4.61h-12.38zm15.465 5.69c4.434-1.33 7.67-5.43 7.67-10.298 0-5.942-4.813-10.753-10.755-10.756H69.908V54.29h6.146V38.924h8.56l9.272 15.364h7.17l-9.537-15.823zM65.553 21.338c0 2.5-2.026 4.526-4.523 4.526-2.5 0-4.525-2.027-4.525-4.526 0-2.5 2.025-4.523 4.525-4.523 2.497 0 4.523 2.025 4.523 4.523M230.172 17.415h-7.468l-9.46 13.69-9.458-13.69h-7.47l13.85 20.05v16.824h6.147V37.477"/><g fill="#FFF"><path d="M237.444 24.96c-2.11 0-3.82-1.712-3.82-3.82 0-2.11 1.71-3.82 3.82-3.82 2.105 0 3.818 1.71 3.818 3.82 0 2.108-1.713 3.82-3.818 3.82m0-8.368c-2.512 0-4.55 2.037-4.55 4.548 0 2.51 2.038 4.547 4.55 4.547 2.51 0 4.547-2.037 4.547-4.547s-2.036-4.548-4.546-4.548"/><path d="M236.342 19.562h1.79c.323 0 .58.258.58.578 0 .32-.257.58-.58.58h-1.79v-1.158zm3.14.578c0-.747-.6-1.35-1.35-1.35h-2.558v4.633h.768v-1.93h1.3l.93 1.93h.858l-.95-1.975c.58-.15 1.003-.68 1.003-1.308"/></g></svg>