<svg xmlns="http://www.w3.org/2000/svg" width="1000" height="328.561" viewBox="0 0 1000 328.561"><g fill-rule="evenodd" clip-rule="evenodd"><path fill="#537CBC" d="M26.121 169.044c0-32.855-.009-65.707.004-98.56.004-10.477 3.375-13.803 13.957-13.81 17.69-.013 35.381.105 53.069-.089 3.858-.042 5.53.656 5.212 4.964-.412 5.565-.357 11.2-.015 16.775.248 4.024-.965 5.329-5.08 5.242-11.905-.251-23.828.06-35.736-.173-3.777-.074-4.818 1.006-4.812 4.801.12 54.874.113 109.748.008 164.625-.006 3.462.813 4.606 4.436 4.537 12.09-.229 24.189.046 36.28-.166 3.619-.064 5.145.664 4.908 4.66-.351 5.938-.216 11.914-.037 17.864.083 2.78-.723 3.773-3.623 3.756-19.134-.113-38.268-.005-57.402-.104-6.011-.03-9.898-3.588-10.832-9.842-.448-3.007-.324-6.111-.324-9.17-.02-31.773-.013-63.542-.013-95.31z"/><path fill="#25B9A1" d="M292.628 170.089c0 33.029.008 66.057-.004 99.086-.004 10.779-3.436 14.185-14.222 14.189-17.327.004-34.656-.166-51.98.111-4.607.073-5.87-1.342-5.552-5.762.387-5.387.283-10.832.021-16.233-.161-3.329.877-4.333 4.237-4.278 12.088.191 24.185-.048 36.273.147 3.514.057 4.977-.482 4.968-4.559-.148-55.046-.135-110.097-.021-165.144.009-3.567-.967-4.619-4.518-4.562-12.088.195-24.185-.031-36.275.141-3.44.049-4.851-.81-4.672-4.512.292-5.942.187-11.911.03-17.864-.072-2.819.446-4.221 3.775-4.195 19.129.143 38.264-.004 57.393.12 7.07.045 10.529 4.162 10.536 12.06.027 33.752.011 67.503.011 101.255z"/><path fill="#58C0EE" d="M159.891 161.813c-9.401 15.082-17.125 31.094-25.799 46.58-5.267 9.402-10.368 18.897-15.545 28.347-11.915 0-23.833-.118-35.747.061-4.309.063-5.618-.64-3.203-5.003 13.454-24.303 26.715-48.715 40.042-73.087 5.905-11.024 11.833-22.034 17.692-33.082 1.019-1.921 2.21-2.795 4.568-2.758 12.563.199 25.13.181 37.695.237-.242 2.605-1.827 4.642-2.957 6.856-5.457 10.681-11.928 20.83-16.746 31.849z"/><path fill="#537BBC" d="M119.639 158.711c-13.327 24.372-26.589 48.784-40.042 73.087-2.415 4.363-1.106 5.066 3.203 5.003 11.914-.179 23.832-.061 35.747-.061-.998 1.567-2.587.979-3.939.986-11.185.043-22.369-.055-33.552.076-3.029.037-4.47-.425-4.459-4.052.133-42.211.137-84.424-.007-126.634-.013-3.861 1.5-4.469 4.76-4.432 10.821.127 21.648.219 32.465-.041 4.039-.097 4.762 1.536 4.727 5.083-.146 15.151-.094 30.306-.02 45.457.011 1.859-.855 4.016 1.117 5.528z"/><path fill="#26B69F" d="M199.201 158.399c2.149-1.435 1.093-3.63 1.106-5.437.096-15.147.166-30.298-.026-45.443-.048-3.568 1.012-4.635 4.533-4.574 11 .19 22.003.196 32.999-.002 3.571-.064 4.511 1.092 4.5 4.605-.115 42.018-.085 84.035-.039 126.053.002 2.373.118 4.167-3.194 4.13-12.262-.144-24.527-.059-36.787-.124-.592 0-1.185-.623-1.774-.956 12.06 0 24.12-.08 36.178.046 3.854.041 4.975-.925 2.941-4.603-5.13-9.279-10.033-18.686-15.139-27.982-8.385-15.264-16.861-30.478-25.298-45.713z"/><path fill="#62C2A5" d="M199.201 158.399c8.437 15.234 16.913 30.449 25.298 45.712 5.106 9.297 10.009 18.703 15.139 27.982 2.034 3.678.912 4.644-2.941 4.603-12.058-.126-24.118-.046-36.178-.046-13.541-24.945-27.083-49.89-40.628-74.837 4.818-11.02 11.289-21.168 16.748-31.85 1.13-2.214 2.715-4.251 2.957-6.856 4.505 4.907 6.669 11.195 9.883 16.858 3.426 6.039 6.498 12.281 9.722 18.434z"/><path fill="#646465" d="M447.376 142.788c2.447-9.834 4.847-19.559 7.292-29.271 2.506-9.957 5.062-19.903 7.594-29.853.222-.871.34-1.783.677-2.606.971-2.38 3.133-2.309 5.062-1.986 2.835.473 1.243 2.594.925 3.847-5.833 23.052-11.762 46.08-17.667 69.111-.529 2.069-1.326 3.432-3.954 3.476-2.966.05-3.621-1.737-4.244-3.887-5.515-19.036-11.026-38.072-16.558-57.103-.34-1.168-.847-2.286-1.553-4.161-4.278 14.538-8.345 28.337-12.401 42.138-1.881 6.395-3.765 12.789-5.613 19.192-.636 2.192-1.354 3.85-4.283 3.821-3.022-.028-3.558-1.936-4.1-4.045-5.829-22.683-11.66-45.364-17.373-68.076-.335-1.34-2.382-3.621.827-4.312 2.456-.53 4.668-.185 5.428 2.898 1.857 7.519 3.832 15.008 5.711 22.521 3.177 12.689 6.314 25.387 9.798 39.416 3.05-10.432 5.739-19.618 8.426-28.803 3.083-10.546 6.164-21.094 9.253-31.638.653-2.236 1.004-4.522 4.3-4.583 3.632-.068 3.93 2.546 4.614 4.91 5.408 18.687 10.764 37.388 16.19 56.069.269.915.014 2.159 1.649 2.925zm173.418 70.859c13.646-12.582 29.063-8.8 34.637 3.277 1.461-1.673 2.814-3.207 4.151-4.758 5.691-6.597 13.12-7.271 20.798-5.36 7.289 1.816 10.797 7.473 11.912 14.592 2.049 13.093.472 26.289.938 39.429.087 2.474-1.28 2.952-3.405 2.977-2.38.028-3.14-1.043-3.127-3.274.052-9.023.016-18.046.009-27.068-.002-2.164.052-4.333-.042-6.495-.411-9.621-5.151-15.112-13.191-15.356-9.095-.273-15.39 5.052-16.143 14.597-.597 7.533-.253 15.144-.305 22.718-.026 3.61-.057 7.22.004 10.828.044 2.453-.354 4.119-3.49 4.104-3.094-.015-3.512-1.604-3.507-4.098.017-11.367.202-22.743-.166-34.101-.326-10.144-6.306-14.96-16.384-13.943-7.475.756-12.913 6.78-13.001 14.758-.117 10.825-.015 21.651-.052 32.479-.007 2.254.605 4.854-3.214 4.862-3.88.009-3.148-2.659-3.152-4.869-.035-15.52-.07-31.037.043-46.554.014-2.004-1.419-5.073 2.415-5.505 3.83-.431 2.885 2.801 3.562 4.775.173.501.355.997.71 1.985z"/><path fill="#666" d="M545.957 105.487c11.698-11.444 27.475-10.603 34.972 3.081 4.592-6.501 10.037-11.167 18.637-10.858 9.695.348 15.544 4.668 17.775 14.101.496 2.099 1.015 4.255 1.036 6.391.111 11.185.037 22.372.101 33.557.016 2.341-.499 3.697-3.269 3.699-2.756 0-3.292-1.335-3.283-3.687.048-11.185.14-22.374-.052-33.556-.103-5.859-1.938-11.279-7.747-13.823-5.231-2.291-10.799-2.008-15.394 1.609-5.169 4.068-6.811 10.044-6.884 16.393-.111 9.382 0 18.764-.057 28.146-.014 2.192.749 5.041-3.157 4.836-3.561-.189-2.559-2.892-2.615-4.825-.324-11.165.46-22.341-.804-33.502-1.088-9.593-5.874-14.193-15.099-13.808-8.537.356-14.216 6.319-14.251 15.082-.041 10.825-.013 21.65-.009 32.475 0 2.362.375 4.725-3.374 4.668-3.85-.059-3.184-2.625-3.188-4.859-.026-15.334-.072-30.671.054-46.006.018-1.99-1.486-5.144 2.277-5.603 4.283-.521 2.879 3.092 3.519 5.206.097.314.361.579.812 1.283z"/><path fill="#646464" d="M743.534 256.178c-6.358 5.792-12.872 9.182-21.011 8.727-8.404-.466-13.924-4.657-15.681-12.269-1.742-7.545 1.339-14.124 8.589-18.007 4.198-2.247 8.792-3.15 13.519-3.359 1.978-.089 4.007.229 5.939-.078 3.001-.475 6.833 1.849 8.896-1.572 2.145-3.558-.422-12.047-3.901-14.942-7.372-6.138-21.023-3.395-24.995 5.311-1.224 2.682-2.904 3.227-5.029 2.421-2.606-.993-1.496-3.271-.839-5.038 2.65-7.129 12.714-12.348 22.059-11.535 13.667 1.188 19.269 7.52 19.451 21.411.152 11.337-.89 22.709.823 34.003.244 1.6-.168 2.506-1.82 2.471-1.688-.032-3.793.753-4.542-1.707-.509-1.682-.857-3.411-1.458-5.837zm-10.93-19.665c-4.951-.276-10.847.026-15.737 4.252-3.08 2.663-4.729 6.042-3.854 10.07.862 3.962 3.531 6.531 7.473 7.777 6.784 2.145 16.355-1.124 21.346-7.155 3.428-4.141 2.977-9.118 1.725-13.353-.997-3.36-5.426-.965-8.252-1.574-.52-.112-1.079-.017-2.701-.017z"/><path fill="#666" d="M561.028 215.413c5.355-5.854 10.307-9.281 17.215-9.322 11.94-.07 18.912 5.564 19.479 17.558.579 12.233.156 24.516.213 36.776.009 2.131-.563 3.34-3.028 3.383-2.715.051-3.386-1.261-3.372-3.643.052-8.654.027-17.31.004-25.964-.009-2.883-.021-5.771-.181-8.65-.538-9.632-5.105-14.111-14.14-13.954-9.116.157-16.116 6.734-16.17 15.358-.07 10.821-.014 21.641-.024 32.459 0 2.155.359 4.328-3.072 4.418-3.703.094-3.446-2.184-3.446-4.601.011-24.164.007-48.327.011-72.488 0-2.175-.305-4.368 3.079-4.461 3.684-.101 3.439 2.238 3.438 4.65-.013 8.993-.006 17.985-.006 28.481zm247.01-7.484c-6.6 7.425-12.572 14.401-18.852 21.088-2.636 2.809-2.708 4.741-.156 7.714 7.244 8.452 14.154 17.188 21.682 26.401-4.438 1.025-7.29 1.021-9.994-2.554-5.332-7.041-11.195-13.68-16.871-20.458-1.039-1.238-2.054-2.619-3.373-3.481-3.738-2.437-6.993-.651-7.035 3.777-.061 6.5-.041 13.001-.011 19.5.011 2.153-.106 3.839-3.057 3.91-3.131.076-3.492-1.541-3.488-4.038.042-24.373.026-48.748.022-73.122 0-2.234-.17-4.333 3.167-4.383 3.743-.055 3.343 2.401 3.345 4.744.007 12.642-.041 25.278.055 37.915.013 1.79-1.093 4.394 1.537 5.143 2.632.754 5.223.505 7.335-1.981 5.023-5.911 10.384-11.537 15.354-17.489 2.665-3.192 5.633-4.166 10.34-2.686z"/><path fill="#656565" d="M841.048 235.616c-5.417.005-10.834.055-16.249-.018-2.491-.03-3.453.676-3.223 3.484 1.443 17.651 16.604 25.709 31.901 16.88 1.472-.847 3.035-3.388 4.942-.609 1.842 2.687-.356 4.017-2.173 5.114-8.596 5.19-17.784 6.445-26.839 1.927-8.673-4.326-13.397-11.855-13.83-21.718-.368-8.324-.63-16.608 4.433-24.007 6.538-9.561 17.664-13.338 28.048-9.279 9.465 3.699 14.925 14.273 13.379 25.321-.404 2.898-2.077 2.902-4.141 2.9-5.416-.008-10.831-.001-16.248.005zm-2.176-5.443c4.315 0 8.631-.064 12.944.024 2.693.057 3.856-.579 3.388-3.734-1.404-9.469-7.135-14.964-16.038-14.873-8.203.085-15.805 7.179-16.78 15.47-.296 2.528.802 3.153 3.003 3.125 4.496-.057 8.99-.018 13.483-.012zM657.427 127.251c-5.238.007-10.481.14-15.711-.043-3.175-.111-3.963 1.239-3.943 4.187.103 15.633 16.005 24.549 30.366 16.926.793-.42 1.555-.923 2.278-1.459 1.438-1.073 2.734-1.692 4.098.203 1.552 2.162.156 3.159-1.359 4.365-9.867 7.855-26.357 6.536-35.011-2.848-11.064-12.001-9.127-36.6 3.66-46.45 7.198-5.545 18.185-6.049 25.956-1.191 7.045 4.403 11.221 15.326 9.41 23.89-.561 2.638-2.275 2.387-4.033 2.4-5.239.037-10.475.013-15.711.02zm-3.087-5.44c4.313 0 8.63-.14 12.937.045 3.46.149 4.377-1.169 3.793-4.505-1.435-8.194-6.595-13.525-13.995-14.061-9.06-.654-15.232 4.096-18.126 13.502-1.112 3.62-.841 5.379 3.534 5.078 3.933-.271 7.903-.058 11.857-.059zM466.575 235.61c-5.417.006-10.836.102-16.251-.031-3.07-.076-4.011.813-3.597 4.115 2.225 17.858 16.604 25.021 32.28 15.914 1.426-.827 2.861-2.741 4.494-.218 1.563 2.417-.054 3.701-1.792 4.799-8.511 5.387-17.655 6.68-26.804 2.417-8.618-4.02-13.503-11.331-14.17-20.906-.414-5.907-.864-11.903.943-17.741 3.978-12.856 14.729-19.841 27.845-17.505 13.172 2.347 18.102 14.278 16.858 26.861-.23 2.323-1.909 2.274-3.555 2.281-5.416.016-10.833.007-16.251.014zm-3.072-5.437c4.496 0 8.992-.078 13.486.026 2.846.067 3.712-.834 3.247-3.845-1.472-9.509-7.152-14.871-16.134-14.767-8.119.096-15.853 7.416-16.693 15.596-.272 2.654 1.08 3.014 3.148 2.996 4.316-.037 8.631-.01 12.946-.006z"/><path fill="#646464" d="M526.333 126.467c.392 4.666-.152 8.938-1.535 13.079-3.947 11.812-14.416 18.354-26.909 16.878-11.335-1.342-20.421-11.255-21.337-23.744-.586-7.931-.56-15.879 3.662-23.105 5.628-9.634 15.936-13.943 27.373-11.433 9.906 2.173 17.847 11.98 18.727 23.221.141 1.79.019 3.601.019 5.104zm-43.554.514c.091 1.816.081 3.806.3 5.77 1.174 10.401 8.3 17.855 17.395 18.278 9.589.444 17.239-6.231 19.101-16.935.806-4.631.789-9.379.04-14.005-1.546-9.578-8.664-16.472-16.979-16.834-9.542-.416-16.024 4.769-18.972 14.996-.82 2.836-.642 5.702-.885 8.73z"/><path fill="#646465" d="M929.086 206.127c11.112.103 17.57 3.761 20.14 11.011.682 1.927 2.084 4.365-.889 5.437-2.492.897-3.94-.189-5.116-3.039-3.4-8.243-16.804-10.976-23.68-5.195-5.487 4.614-4.838 11.124 1.443 14.556 3.207 1.75 6.734 2.536 10.244 3.344 4.411 1.015 8.739 2.271 12.604 4.684 8.933 5.576 9.43 17.351 1.054 23.683-8.25 6.233-24.223 5.685-31.952-1.087-2.377-2.084-4.015-4.64-4.751-7.703-.361-1.505-1.097-3.466 1.307-3.917 1.864-.349 3.671-.64 4.849 1.981 4.318 9.6 17.462 12.835 25.956 6.614 5.325-3.901 5.419-10.611.091-14.62-2.926-2.199-6.401-3.205-9.924-4.08-3.318-.823-6.647-1.675-9.854-2.831-8.652-3.113-11.65-7.607-10.779-15.746.659-6.172 6.839-11.803 14.215-12.824 1.959-.27 3.962-.216 5.042-.268z"/><path fill="#656565" d="M696.209 107.157c5.421-6.967 11.608-9.835 19.46-9.415 8.87.475 14.496 4.814 16.587 13.458 2.029 8.377.779 16.902 1.045 25.356.161 5.049-.026 10.109.046 15.165.032 2.308-.432 3.736-3.233 3.738-2.724.002-3.34-1.265-3.325-3.651.063-9.388.02-18.777.016-28.163 0-1.807.041-3.613-.02-5.417-.344-10.009-4.944-14.971-13.878-15-9.389-.028-16.469 6.491-16.576 15.527-.124 10.289.04 20.581-.087 30.871-.03 2.348 1.406 5.865-3.305 5.787-4.381-.074-2.961-3.361-2.979-5.519-.106-15.165-.109-30.332.004-45.496.018-2.004-1.371-5.144 2.489-5.436 3.899-.296 2.771 2.854 3.159 4.932l.597 3.263z"/><path fill="#646464" d="M495.982 235.346c-.314-4.185.083-8.296 1.297-12.317 5.146-17.059 25.958-23.101 38.657-11.224 3.151 2.948 5.056 6.563 5.522 10.848.169 1.554.466 3.448-1.947 3.723-1.911.218-3.315-.043-4.139-2.352-3.51-9.823-7.795-12.856-16.878-12.399-7.882.398-13.216 5.105-15.237 14.338-1.635 7.468-1.727 15.056 1.039 22.393 2.804 7.444 7.877 10.984 15.64 11.05 7.638.065 12.632-3.344 15.358-10.993.919-2.575 2.497-2.876 4.576-2.408 2.336.527 1.681 2.472 1.441 3.984-1.197 7.56-9.996 14.342-19.188 14.876-14.703.855-25.128-8.526-26.125-23.561-.129-1.98-.016-3.972-.016-5.958z"/><path fill="#676767" d="M411.68 228.579c-.004 10.288.02 20.575-.026 30.863-.008 1.866.549 4.147-2.615 4.309-3.418.175-3.17-2.116-3.172-4.315-.006-20.214-.15-40.432.098-60.642.061-4.968-1.376-6.779-6.415-6.427-5.567.392-11.182.098-16.778.069-1.644-.009-3.44.039-3.436-2.352.004-2.391 1.807-2.341 3.444-2.343 17.329-.013 34.656-.013 51.982 0 1.642.002 3.442-.043 3.442 2.35-.002 2.391-1.803 2.336-3.444 2.345-6.136.028-12.276.152-18.407-.026-3.536-.1-4.769 1.276-4.721 4.765.143 10.465.052 20.936.048 31.404z"/><path fill="#646464" d="M880.866 214.834c4.056-5.332 8.722-8.907 15.155-8.876 1.723.006 4.823-.989 4.655 2.713-.124 2.743-1.245 3.854-4.376 3.862-10.495.039-15.74 5.621-15.769 16.194-.028 10.101.005 20.201-.018 30.304-.004 2.301.481 4.824-3.296 4.785-3.91-.043-3.07-2.773-3.079-4.938-.045-15.694-.057-31.388.014-47.08.009-1.927-1.02-4.644 2.486-4.938 3.475-.292 2.878 2.341 3.214 4.369.171 1.03.559 2.02 1.014 3.605z"/></g></svg>